<svg width="140" height="140" viewBox="0 0 140 140" fill="none" xmlns="http://www.w3.org/2000/svg">
    <path d="M99.1667 11.667V23.3337H116.667C118.214 23.3337 119.698 23.9482 120.791 25.0422C121.885 26.1362 122.5 27.6199 122.5 29.167V122.5C122.5 124.047 121.885 125.531 120.791 126.625C119.698 127.719 118.214 128.334 116.667 128.334H23.3333C21.7862 128.334 20.3025 127.719 19.2085 126.625C18.1146 125.531 17.5 124.047 17.5 122.5V29.167C17.5 27.6199 18.1146 26.1362 19.2085 25.0422C20.3025 23.9482 21.7862 23.3337 23.3333 23.3337H40.8333V11.667H99.1667ZM40.8333 35.0003H29.1667V116.667H110.833V35.0003H99.1667V46.667H40.8333V35.0003ZM75.8333 64.167V75.8337H87.5V87.5003H75.8275L75.8333 99.167H64.1667L64.1608 87.5003H52.5V75.8337H64.1667V64.167H75.8333ZM87.5 23.3337H52.5V35.0003H87.5V23.3337Z" fill="#F8F8F8"/>
</svg>

