<svg width="94" height="118" viewBox="0 0 94 118" fill="none" xmlns="http://www.w3.org/2000/svg">
    <path d="M87.8334 0.666992V12.3337H76.1668V29.8337C80.8081 29.8337 85.2593 31.6774 88.5411 34.9593C91.823 38.2412 93.6668 42.6924 93.6668 47.3337V111.5C93.6668 113.047 93.0522 114.531 91.9582 115.625C90.8643 116.719 89.3805 117.334 87.8334 117.334H6.16683C4.61973 117.334 3.136 116.719 2.04204 115.625C0.948078 114.531 0.333496 113.047 0.333496 111.5V47.3337C0.333496 42.6924 2.17724 38.2412 5.45912 34.9593C8.74101 31.6774 13.1922 29.8337 17.8335 29.8337V12.3337H6.16683V0.666992H87.8334ZM76.1668 41.5003H17.8335C16.2864 41.5003 14.8027 42.1149 13.7087 43.2089C12.6147 44.3028 12.0002 45.7866 12.0002 47.3337V105.667H82.0001V47.3337C82.0001 45.7866 81.3855 44.3028 80.2916 43.2089C79.1976 42.1149 77.7139 41.5003 76.1668 41.5003ZM52.8335 53.167V64.8337H64.5001V76.5003H52.8276L52.8335 88.167H41.1668L41.161 76.5003H29.5001V64.8337H41.1668V53.167H52.8335ZM64.5001 12.3337H29.5001V29.8337H64.5001V12.3337Z" fill="#02897A"/>
</svg>
