<svg width="24" height="24" viewBox="0 0 24 24" fill="none" xmlns="http://www.w3.org/2000/svg">
<path d="M7.22982 21.9985H5.77421C5.03867 21.9988 4.31907 21.7841 3.70397 21.3808C3.08886 20.9774 2.60507 20.4031 2.31212 19.7284C2.01917 19.0537 1.92984 18.3081 2.05513 17.5833C2.18042 16.8585 2.51485 16.1862 3.01728 15.649L4.15577 14.4276C4.70546 13.8386 5.00494 13.0591 4.99108 12.2535C4.97723 11.4479 4.65111 10.6792 4.08149 10.1094L2.963 8.99089C2.8329 8.85619 2.76091 8.67577 2.76253 8.4885C2.76416 8.30123 2.83928 8.1221 2.9717 7.98967C3.10412 7.85725 3.28326 7.78213 3.47053 7.78051C3.6578 7.77888 3.83822 7.85087 3.97292 7.98097L5.08998 9.09946C5.9213 9.93109 6.39725 11.053 6.4175 12.2287C6.43775 13.4044 6.00072 14.5421 5.19854 15.4018L4.06006 16.6232C3.7487 16.9573 3.54162 17.3751 3.46421 17.8253C3.38679 18.2754 3.4424 18.7383 3.62423 19.1573C3.80605 19.5763 4.10618 19.9332 4.48782 20.1841C4.86947 20.435 5.31604 20.5691 5.77278 20.57H6.4913C6.48844 20.2786 6.48987 19.9129 6.50273 19.4958C6.53987 18.4102 6.65986 16.9489 7.00269 15.4761C7.34552 14.0119 7.91976 12.4792 8.90255 11.2993C9.77819 10.2479 10.9681 9.49228 12.5337 9.31658V5.12262C12.5351 3.39989 13.9336 2 15.6577 2C16.3834 2 16.9719 2.58995 16.9719 3.31704V4.00699H18.6532C19.596 4.00699 20.4688 4.4941 20.9659 5.29546L21.5873 6.29824C22.6744 8.05382 21.4902 10.3037 19.4803 10.4479V19.7786C19.4803 21.0043 18.4875 21.9985 17.2619 21.9985H16.472V19.7786C16.4722 19.2895 16.376 18.8051 16.1889 18.3531C16.0018 17.9011 15.7276 17.4904 15.3817 17.1445C15.0359 16.7985 14.6253 16.5241 14.1734 16.3368C13.7215 16.1496 13.2371 16.0532 12.748 16.0532H11.4938C11.3043 16.0532 11.1227 16.1285 10.9887 16.2624C10.8548 16.3963 10.7795 16.578 10.7795 16.7674C10.7795 16.9569 10.8548 17.1385 10.9887 17.2725C11.1227 17.4064 11.3043 17.4817 11.4938 17.4817H12.748C14.015 17.4817 15.0435 18.5102 15.0435 19.7786V21.9985H7.22982Z" fill="#373737"/>
</svg>
