<svg width="24" height="24" viewBox="0 0 24 24" fill="none" xmlns="http://www.w3.org/2000/svg">
<path d="M14.1274 2.88168C12.9637 1.70611 11.0363 1.70611 9.87267 2.88167L4.18902 8.62354C3.8626 8.9533 3.64326 9.37019 3.55862 9.82168C2.86836 13.5038 2.81741 17.2733 3.4079 20.972L3.61697 22.2815C3.683 22.6951 4.04718 23 4.47514 23H8.44662C8.7737 23 9.03885 22.7406 9.03885 22.4207V14.3103H14.9612V22.4207C14.9612 22.7406 15.2264 23 15.5534 23H19.5249C19.9528 23 20.317 22.6951 20.383 22.2815L20.5921 20.972C21.1826 17.2733 21.1316 13.5038 20.4414 9.82167C20.3567 9.37019 20.1374 8.9533 19.811 8.62354L14.1274 2.88168Z" fill="#373737"/>
</svg>
