<svg width="32" height="32" viewBox="0 0 32 32" fill="none" xmlns="http://www.w3.org/2000/svg">
    <path fill-rule="evenodd" clip-rule="evenodd" d="M8 0C5.87827 0 3.84344 0.842855 2.34315 2.34315C0.842855 3.84344 0 5.87827 0 8V24C0 26.1217 0.842855 28.1566 2.34315 29.6569C3.84344 31.1571 5.87827 32 8 32H24C26.1217 32 28.1566 31.1571 29.6569 29.6569C31.1571 28.1566 32 26.1217 32 24V8C32 5.87827 31.1571 3.84344 29.6569 2.34315C28.1566 0.842855 26.1217 0 24 0H8ZM21.968 13.8944C22.1117 13.741 22.2238 13.5608 22.2979 13.3641C22.372 13.1674 22.4066 12.958 22.3998 12.748C22.3929 12.5379 22.3448 12.3312 22.2581 12.1397C22.1714 11.9482 22.0478 11.7757 21.8944 11.632C21.741 11.4883 21.5608 11.3762 21.3641 11.3021C21.1674 11.228 20.958 11.1934 20.748 11.2002C20.5379 11.2071 20.3312 11.2552 20.1397 11.3419C19.9482 11.4286 19.7757 11.5522 19.632 11.7056L14.6992 16.9696L12.2624 14.8048C11.9431 14.5394 11.5332 14.4085 11.1192 14.4397C10.7052 14.4709 10.3195 14.6619 10.0437 14.9722C9.76789 15.2825 9.62348 15.6879 9.641 16.1027C9.65852 16.5175 9.83659 16.9093 10.1376 17.1952L13.7376 20.3952C14.0491 20.6719 14.4562 20.8162 14.8725 20.7974C15.2887 20.7785 15.6812 20.5981 15.9664 20.2944L21.9664 13.8944H21.968Z" fill="#02897A"/>
</svg>