<svg width="24" height="24" viewBox="0 0 24 24" fill="none" xmlns="http://www.w3.org/2000/svg">
<path d="M5.33333 6C4.44928 6 3.60143 6.33714 2.97631 6.93726C2.35119 7.53737 2 8.35131 2 9.2V9.5216L12 14.6912L22 9.5232V9.2C22 8.35131 21.6488 7.53737 21.0237 6.93726C20.3986 6.33714 19.5507 6 18.6667 6H5.33333Z" fill="#373737"/>
<path d="M22 11.3392L12.395 16.304C12.2736 16.3667 12.1379 16.3996 12 16.3996C11.8621 16.3996 11.7264 16.3667 11.605 16.304L2 11.3392V18.8C2 19.6487 2.35119 20.4626 2.97631 21.0627C3.60143 21.6628 4.44928 22 5.33333 22H18.6667C19.5507 22 20.3986 21.6628 21.0237 21.0627C21.6488 20.4626 22 19.6487 22 18.8V11.3392Z" fill="#373737"/>
</svg>
