<svg width="24" height="24" viewBox="0 0 24 24" fill="none" xmlns="http://www.w3.org/2000/svg">
<path d="M15.75 2C16.3467 2 16.919 2.23705 17.341 2.65901C17.7629 3.08097 18 3.65326 18 4.25V19.75C18 20.3467 17.7629 20.919 17.341 21.341C16.919 21.7629 16.3467 22 15.75 22H8.25C7.65326 22 7.08097 21.7629 6.65901 21.341C6.23705 20.919 6 20.3467 6 19.75V4.25C6 3.65326 6.23705 3.08097 6.65901 2.65901C7.08097 2.23705 7.65326 2 8.25 2H15.75ZM14.75 4.5H9.25C9.05998 4.50006 8.87706 4.57224 8.73821 4.70197C8.59936 4.8317 8.51493 5.0093 8.50197 5.19888C8.48902 5.38846 8.54852 5.57589 8.66843 5.7233C8.78835 5.87071 8.95975 5.9671 9.148 5.993L9.25 6H14.75C14.94 5.99994 15.1229 5.92776 15.2618 5.79803C15.4006 5.6683 15.4851 5.4907 15.498 5.30112C15.511 5.11154 15.4515 4.92411 15.3316 4.7767C15.2117 4.62929 15.0402 4.5329 14.852 4.507L14.75 4.5Z" fill="#373737"/>
</svg>
