<svg width="140" height="140" viewBox="0 0 140 140" fill="none" xmlns="http://www.w3.org/2000/svg">
    <path d="M112.251 27.7482C116.298 31.7943 119.291 36.7708 120.969 42.2419C122.647 47.7131 122.958 53.5122 121.876 59.1315C125.189 60.0649 128.327 61.8324 130.941 64.4282C132.887 66.3539 134.432 68.6465 135.486 71.1732C136.541 73.6999 137.084 76.4107 137.084 79.1486C137.084 81.8865 136.541 84.5973 135.486 87.124C134.432 89.6507 132.887 91.9433 130.941 93.869L99.1666 125.416L81.5382 107.916L64.1666 125.328L14.7 75.7915C8.73461 69.1191 5.55209 60.415 5.80665 51.4684C6.06121 42.5218 9.73351 34.0127 16.0686 27.6903C22.4037 21.3679 30.9201 17.7127 39.8672 17.4761C48.8143 17.2395 57.512 20.4395 64.1724 26.4182C70.8374 20.4519 79.5344 17.2649 88.4763 17.5123C97.4182 17.7597 105.926 21.4225 112.251 27.7482V27.7482ZM75.6116 72.7115C74.7579 73.5528 74.0801 74.5553 73.6174 75.6609C73.1547 76.7665 72.9164 77.953 72.9164 79.1515C72.9164 80.35 73.1547 81.5365 73.6174 82.6421C74.0801 83.7477 74.7579 84.7503 75.6116 85.5915L99.1666 108.977L122.722 85.5915C123.575 84.7503 124.253 83.7477 124.716 82.6421C125.178 81.5365 125.417 80.35 125.417 79.1515C125.417 77.953 125.178 76.7665 124.716 75.6609C124.253 74.5553 123.575 73.5528 122.722 72.7115C120.959 70.9718 118.581 69.9974 116.104 69.9995C113.627 70.0017 111.251 70.9804 109.492 72.7232L99.1549 82.9548L90.9474 74.8115L88.8299 72.7115C87.0691 70.9738 84.6947 69.9995 82.2208 69.9995C79.7468 69.9995 77.3724 70.9738 75.6116 72.7115V72.7115ZM24.3366 36.0024C20.1614 40.1773 17.7243 45.7799 17.5165 51.6806C17.3086 57.5814 19.3455 63.3415 23.2166 67.7999L64.1666 108.814L73.2608 99.7023L67.3924 93.869C65.4462 91.9433 63.9011 89.6507 62.8467 87.124C61.7922 84.5973 61.2493 81.8865 61.2493 79.1486C61.2493 76.4107 61.7922 73.6999 62.8467 71.1732C63.9011 68.6465 65.4462 66.3539 67.3924 64.4282C71.3402 60.5239 76.6684 58.3341 82.2208 58.3341C87.7731 58.3341 93.1013 60.5239 97.0491 64.4282L99.1666 66.5282L101.284 64.4282C103.763 61.9724 106.709 60.2574 109.83 59.2832C111.303 54.4147 111.145 49.1982 109.38 44.4277C107.615 39.6572 104.341 35.5938 100.054 32.8558C95.7673 30.1178 90.7036 28.8551 85.6333 29.2599C80.563 29.6647 75.7637 31.7148 71.9658 35.0982L64.1783 42.0865L56.3849 35.104C51.9402 31.1296 46.1422 29.008 40.182 29.1751C34.2218 29.3421 28.5518 31.7852 24.3366 36.0024V36.0024Z" fill="#F8F8F8"/>
</svg>
