<svg width="24" height="24" viewBox="0 0 24 24" fill="none" xmlns="http://www.w3.org/2000/svg">
<path fill-rule="evenodd" clip-rule="evenodd" d="M7.07347 7.51658L7.15736 3.95012C7.17326 3.27425 7.61988 2.68438 8.2661 2.48576C10.3734 1.83808 12.6266 1.83808 14.7339 2.48576C15.3801 2.68438 15.8268 3.27425 15.8427 3.95012L15.9266 7.5166C16.8037 8.33266 17.4549 9.38825 17.7762 10.5792C17.8628 10.2607 18.154 10.0264 18.5 10.0264C18.9142 10.0264 19.25 10.3622 19.25 10.7764V13.7764C19.25 14.1906 18.9142 14.5264 18.5 14.5264C18.154 14.5264 17.8628 14.2922 17.7762 13.9736C17.4549 15.1646 16.8037 16.2202 15.9266 17.0363L15.8427 20.6028C15.8268 21.2786 15.3801 21.8685 14.7339 22.0671C12.6266 22.7148 10.3734 22.7148 8.2661 22.0671C7.61988 21.8685 7.17326 21.2786 7.15736 20.6028L7.07347 17.0363C5.79789 15.8495 5 14.1561 5 12.2764C5 10.3967 5.79789 8.70336 7.07347 7.51658ZM8.70679 3.91957C10.5269 3.36014 12.4731 3.36014 14.2932 3.91957C14.3223 3.9285 14.3424 3.95501 14.3431 3.9854L14.4012 6.45824C13.5279 6.02191 12.5426 5.77643 11.5 5.77643C10.4574 5.77643 9.47209 6.02191 8.59878 6.45823L8.65695 3.9854C8.65766 3.95501 8.67774 3.9285 8.70679 3.91957ZM8.59878 18.0946L8.65695 20.5675C8.65766 20.5979 8.67774 20.6244 8.70679 20.6333C10.5269 21.1927 12.4731 21.1927 14.2932 20.6333C14.3223 20.6244 14.3424 20.5979 14.3431 20.5675L14.4012 18.0946C13.5279 18.5309 12.5426 18.7764 11.5 18.7764C10.4574 18.7764 9.47209 18.5309 8.59878 18.0946ZM9.20189 14.5745C8.909 14.2816 8.43412 14.2816 8.14123 14.5745C7.84834 14.8674 7.84834 15.3423 8.14123 15.6352C9.99622 17.4902 13.0038 17.4902 14.8587 15.6352C15.1516 15.3423 15.1516 14.8674 14.8587 14.5745C14.5659 14.2816 14.091 14.2816 13.7981 14.5745C12.5289 15.8437 10.4711 15.8437 9.20189 14.5745Z" fill="#373737"/>
</svg>
