<svg width="140" height="140" viewBox="0 0 140 140" fill="none" xmlns="http://www.w3.org/2000/svg">
    <path d="M76.976 13.2275L95.9343 46.0692C96.706 47.4084 96.9146 48.9992 96.5143 50.4922C96.114 51.9851 95.1375 53.2581 93.7993 54.0317L86.216 58.4067L92.0552 68.51L81.9518 74.3433L76.1185 64.2342L68.541 68.615C67.2012 69.3885 65.609 69.5981 64.1147 69.1977C62.6203 68.7973 61.3462 67.8198 60.5727 66.48L49.851 47.9183C46.0256 49.0809 42.4799 51.0172 39.434 53.6072C36.3881 56.1971 33.9069 59.3854 32.1445 62.9742C30.3821 66.563 29.3761 70.4756 29.1888 74.4694C29.0016 78.4632 29.6371 82.4529 31.056 86.1908C35.7221 83.2262 41.1378 81.6558 46.666 81.6641C56.4893 81.6641 65.181 86.5233 70.466 93.9666L115.313 68.0725L121.146 78.1758L75.191 104.712C76.029 108.65 76.0489 112.718 75.2493 116.664H122.499V128.331L23.3327 128.337C19.537 123.291 17.4892 117.145 17.4993 110.831C17.4993 104.957 19.2377 99.485 22.2243 94.9058C19.5183 89.7838 17.9329 84.1447 17.5734 78.3629C17.2138 72.5812 18.0885 66.7891 20.1392 61.3714C22.1899 55.9536 25.3697 51.034 29.4676 46.9395C33.5654 42.8449 38.4874 39.6689 43.9068 37.6225L41.6143 33.6442C40.0673 30.9646 39.6481 27.7802 40.4488 24.7915C41.2496 21.8029 43.2048 19.2547 45.8843 17.7075L61.0393 8.95754C63.7189 7.41052 66.9033 6.99128 69.892 7.79205C72.8807 8.59283 75.4289 10.548 76.976 13.2275V13.2275ZM46.666 93.3308C43.8656 93.3293 41.1057 94 38.6182 95.2863C36.1307 96.5727 33.9882 98.4373 32.3708 100.723C30.7534 103.01 29.7082 105.65 29.3231 108.424C28.938 111.198 29.2242 114.024 30.1577 116.664H63.1743C64.1078 114.024 64.394 111.198 64.0089 108.424C63.6238 105.65 62.5787 103.01 60.9612 100.723C59.3438 98.4373 57.2013 96.5727 54.7138 95.2863C52.2263 94 49.4664 93.3293 46.666 93.3308V93.3308ZM66.8727 19.0609L51.7177 27.8109L67.7593 55.595L82.9143 46.845L66.8727 19.0609V19.0609Z" fill="#02897A"/>
</svg>
