<svg width="25" height="24" viewBox="0 0 25 24" fill="none" xmlns="http://www.w3.org/2000/svg">
    <path d="M12.5002 8.75005C10.7053 8.75005 9.25018 10.2051 9.25018 12C9.25018 13.795 10.7053 15.25 12.5002 15.25C14.2951 15.25 15.7502 13.795 15.7502 12C15.7502 10.2051 14.2951 8.75005 12.5002 8.75005Z" fill="#E2E2E2"/>
    <path fill-rule="evenodd" clip-rule="evenodd" d="M7.26972 3.08151C10.7178 2.69614 14.2825 2.69614 17.7307 3.08151C19.6291 3.29369 21.1603 4.78947 21.3831 6.69452C21.7954 10.2195 21.7954 13.7806 21.3831 17.3056C21.1603 19.2106 19.6291 20.7064 17.7307 20.9186C14.2825 21.304 10.7178 21.304 7.26972 20.9186C5.37132 20.7064 3.84013 19.2106 3.61732 17.3056C3.20504 13.7806 3.20504 10.2195 3.61732 6.69452C3.84013 4.78947 5.37132 3.29369 7.26972 3.08151ZM17.5002 6.00005C16.9479 6.00005 16.5002 6.44776 16.5002 7.00005C16.5002 7.55233 16.9479 8.00005 17.5002 8.00005C18.0525 8.00005 18.5002 7.55233 18.5002 7.00005C18.5002 6.44776 18.0525 6.00005 17.5002 6.00005ZM7.75018 12C7.75018 9.37669 9.87683 7.25005 12.5002 7.25005C15.1235 7.25005 17.2502 9.37669 17.2502 12C17.2502 14.6234 15.1235 16.75 12.5002 16.75C9.87683 16.75 7.75018 14.6234 7.75018 12Z" fill="#E2E2E2"/>
</svg>

