<svg width="140" height="140" viewBox="0 0 140 140" fill="none" xmlns="http://www.w3.org/2000/svg">
    <path d="M46.6664 17.5V29.1667H34.9997V52.5C34.9997 65.3917 45.4414 75.8333 58.333 75.8333C71.2247 75.8333 81.6664 65.3917 81.6664 52.5V29.1667H69.9997V17.5H87.4997C89.0468 17.5 90.5306 18.1146 91.6245 19.2085C92.7185 20.3025 93.3331 21.7862 93.3331 23.3333V52.5C93.332 60.7715 90.4025 68.7755 85.0637 75.0934C79.725 81.4113 72.3218 85.635 64.1664 87.0158V96.25C64.1632 101.031 65.838 105.662 68.8989 109.335C71.9598 113.007 76.2126 115.49 80.9159 116.348C85.6193 117.207 90.4749 116.388 94.6362 114.034C98.7975 111.68 102.001 107.94 103.687 103.466C99.9337 101.783 96.8931 98.8308 95.0993 95.1287C93.3056 91.4267 92.8733 87.2111 93.8784 83.2221C94.8836 79.2331 97.2618 75.7256 100.596 73.3156C103.93 70.9056 108.006 69.7471 112.109 70.0434C116.212 70.3398 120.079 72.0721 123.032 74.9362C125.985 77.8003 127.835 81.6131 128.256 85.7052C128.677 89.7973 127.644 93.907 125.337 97.3128C123.029 100.719 119.596 103.203 115.64 104.329C113.68 111.888 109.031 118.472 102.564 122.849C96.0974 127.225 88.2564 129.093 80.511 128.102C72.7656 127.111 65.6474 123.329 60.4908 117.465C55.3341 111.602 52.4929 104.059 52.4997 96.25V87.0158C44.3438 85.6361 36.9399 81.4127 31.601 75.0946C26.262 68.7764 23.3329 60.7718 23.333 52.5V23.3333C23.333 21.7862 23.9476 20.3025 25.0416 19.2085C26.1355 18.1146 27.6192 17.5 29.1663 17.5H46.6664ZM110.833 81.6667C109.286 81.6667 107.802 82.2813 106.708 83.3752C105.614 84.4692 105 85.9529 105 87.5C105 89.0471 105.614 90.5308 106.708 91.6248C107.802 92.7188 109.286 93.3333 110.833 93.3333C112.38 93.3333 113.864 92.7188 114.958 91.6248C116.052 90.5308 116.666 89.0471 116.666 87.5C116.666 85.9529 116.052 84.4692 114.958 83.3752C113.864 82.2813 112.38 81.6667 110.833 81.6667Z" fill="white"/>
</svg>
