<svg width="24" height="24" viewBox="0 0 24 24" fill="none" xmlns="http://www.w3.org/2000/svg">
<path d="M12 3C9.59489 3 7.64516 4.93577 7.64516 7.32367C7.64516 9.71157 9.59489 11.6473 12 11.6473C14.4051 11.6473 16.3548 9.71157 16.3548 7.32367C16.3548 4.93577 14.4051 3 12 3Z" fill="#373737"/>
<path d="M7.35484 13.9533C4.94973 13.9533 3 15.8891 3 18.277V19.647C3 20.5155 3.63393 21.256 4.49722 21.3959C9.46618 22.2014 14.5338 22.2014 19.5028 21.3959C20.3661 21.256 21 20.5155 21 19.647V18.277C21 15.8891 19.0503 13.9533 16.6452 13.9533H16.2493C16.0351 13.9533 15.8222 13.9869 15.6185 14.053L14.6134 14.3788C12.9152 14.9293 11.0848 14.9293 9.38662 14.3788L8.3815 14.053C8.17784 13.9869 7.96494 13.9533 7.75069 13.9533H7.35484Z" fill="#373737"/>
</svg>
