<svg width="24" height="24" viewBox="0 0 24 24" fill="none" xmlns="http://www.w3.org/2000/svg">
<path fill-rule="evenodd" clip-rule="evenodd" d="M6.80757 7.31892L7.18707 10.8785L6.4191 10.9424C5.34816 11.0315 4.47369 11.8705 4.30008 12.9755C3.89997 15.5221 3.89997 18.1196 4.30008 20.6662C4.47369 21.7712 5.34816 22.6101 6.4191 22.6992L8.07416 22.8369C10.6872 23.0544 13.3128 23.0544 15.9258 22.8369L17.5809 22.6992C18.6518 22.6101 19.5263 21.7712 19.6999 20.6662C20.1 18.1196 20.1 15.5221 19.6999 12.9755C19.5263 11.8705 18.6518 11.0315 17.5809 10.9424L16.8128 10.8785L17.1923 7.31892C17.2371 6.89929 17.2371 6.47579 17.1923 6.05616L17.1671 5.81994C16.9 3.31426 15.0099 1.33168 12.6074 1.03711C12.2038 0.987629 11.7961 0.987629 11.3925 1.03711C8.99 1.33168 7.09989 3.31426 6.83275 5.81994L6.80757 6.05616C6.76283 6.47579 6.76283 6.89929 6.80757 7.31892ZM12.4135 2.7546C12.1388 2.72091 11.8611 2.72091 11.5864 2.7546C9.95067 2.95516 8.66382 4.30496 8.48194 6.01091L8.45676 6.24714C8.42555 6.53984 8.42555 6.83524 8.45676 7.12794L8.84261 10.7471C10.9453 10.6065 13.0546 10.6065 15.1573 10.7471L15.5431 7.12794C15.5743 6.83524 15.5743 6.53984 15.5431 6.24714L15.5179 6.01091C15.3361 4.30496 14.0492 2.95516 12.4135 2.7546ZM12 15.0915C11.0835 15.0915 10.3406 15.8658 10.3406 16.8208C10.3406 17.7759 11.0835 18.5502 12 18.5502C12.9164 18.5502 13.6593 17.7759 13.6593 16.8208C13.6593 15.8658 12.9164 15.0915 12 15.0915Z" fill="#373737"/>
</svg>
